<?xml version="1.0" standalone="no"?>
<!DOCTYPE svg PUBLIC "-//W3C//DTD SVG 20010904//EN"
 "http://www.w3.org/TR/2001/REC-SVG-20010904/DTD/svg10.dtd">
<svg version="1.0" xmlns="http://www.w3.org/2000/svg"
 viewBox="0 0 2600.000000 2600.000000"
 preserveAspectRatio="xMidYMid meet">
<metadata>
Created by potrace 1.15, written by Peter Selinger 2001-2017
</metadata>
<g transform="translate(0.000000,2600.000000) scale(0.100000,-0.100000)"
fill="#000000" stroke="none">
<path d="M11240 20973 c-450 -44 -912 -241 -1270 -541 -558 -467 -916 -1152
-1012 -1937 -20 -165 -17 -586 5 -755 102 -769 333 -1396 738 -2007 593 -894
1550 -1684 2886 -2383 l182 -95 3 -1345 3 -1345 27 -81 c54 -159 167 -287 313
-355 103 -48 183 -63 293 -56 255 16 463 188 539 442 16 56 18 153 21 1400 l3
1340 107 55 c429 221 952 536 1322 798 587 415 1103 902 1465 1383 450 597
732 1235 866 1959 46 251 63 426 63 685 0 242 -5 316 -40 530 -80 494 -284
963 -594 1365 -102 133 -343 370 -480 472 -556 415 -1205 566 -1855 432 -488
-101 -978 -382 -1379 -790 l-75 -77 -139 134 c-455 440 -951 691 -1505 764
-106 13 -385 18 -487 8z m460 -1212 c265 -69 510 -218 745 -455 141 -141 234
-256 370 -454 110 -161 168 -217 270 -267 107 -52 190 -68 315 -62 218 11 358
90 481 270 318 468 580 718 922 882 257 124 539 148 792 68 411 -130 754 -501
915 -991 70 -214 108 -491 95 -697 -64 -1009 -567 -1901 -1515 -2679 -267
-219 -619 -465 -950 -664 l-165 -99 -6 676 c-5 601 -7 683 -23 736 -49 171
-165 311 -316 383 -47 22 -109 45 -138 51 -305 63 -606 -123 -699 -429 -15
-48 -17 -143 -22 -737 l-6 -683 -175 106 c-1467 884 -2249 1872 -2431 3074
-26 174 -31 470 -10 620 99 703 555 1257 1124 1366 100 19 328 11 427 -15z"/>
<path d="M8300 8305 c-808 -111 -1314 -715 -1409 -1680 -35 -358 -16 -723 56
-1045 127 -576 463 -1025 905 -1210 387 -162 953 -178 1343 -40 207 74 353
168 521 335 328 328 491 746 535 1380 38 544 -44 1048 -232 1423 -247 494
-658 777 -1224 842 -121 13 -378 11 -495 -5z m431 -1113 c76 -27 124 -59 185
-123 61 -65 94 -121 127 -216 58 -162 80 -402 66 -711 -17 -363 -73 -556 -198
-681 -92 -92 -194 -131 -341 -131 -296 0 -472 193 -531 585 -21 137 -18 610 4
740 55 316 187 497 402 552 68 17 215 10 286 -15z"/>
<path d="M3709 8245 c-57 -31 -54 91 -57 -1925 -2 -1020 0 -1879 3 -1909 5
-41 14 -61 36 -83 l28 -29 823 3 c815 3 824 4 932 26 148 31 324 86 399 123
355 178 633 576 741 1060 51 230 61 354 61 739 0 362 -4 415 -46 660 -73 420
-225 746 -459 981 -219 220 -457 326 -810 358 -70 7 -413 11 -870 11 -625 -1
-759 -3 -781 -15z m1414 -1080 c308 -65 408 -285 408 -900 1 -423 -34 -609
-140 -750 -75 -100 -191 -135 -442 -135 l-149 0 0 900 0 900 128 0 c72 0 157
-7 195 -15z"/>
<path d="M10628 8231 l-33 -29 -3 -1909 c-2 -1420 1 -1915 9 -1936 24 -58 11
-57 529 -57 514 0 501 -1 532 53 10 17 14 215 18 870 l5 847 485 -861 c267
-473 496 -871 509 -885 l24 -24 476 0 c424 0 479 2 500 16 54 38 51 -65 51
1966 0 1773 -1 1885 -18 1918 -9 19 -28 40 -42 47 -19 10 -139 13 -492 13
l-468 0 -32 -29 -33 -29 -5 -871 -5 -870 -490 872 c-269 479 -500 883 -512
897 l-21 25 -476 3 -475 3 -33 -30z"/>
<path d="M15045 8251 c-11 -5 -27 -17 -37 -27 -17 -20 -1188 -3776 -1188
-3812 0 -32 16 -68 41 -91 23 -21 29 -21 539 -21 562 0 545 -2 569 57 6 15 40
145 75 288 l64 260 470 3 471 2 10 -37 c6 -21 33 -130 61 -243 28 -113 58
-226 66 -252 27 -82 -5 -78 589 -78 342 0 533 4 546 10 42 23 61 98 38 157 -6
15 -269 861 -585 1878 -317 1018 -582 1860 -590 1873 -8 13 -26 27 -40 32 -31
12 -1070 12 -1099 1z m644 -1887 c56 -220 101 -403 101 -407 0 -4 -94 -7 -209
-7 l-209 0 104 408 c57 224 104 409 104 411 1 20 21 -56 109 -405z"/>
<path d="M17004 8226 l-34 -34 0 -501 c0 -536 1 -545 49 -571 13 -6 180 -10
470 -10 l451 0 0 -1365 c0 -1472 -2 -1407 49 -1435 27 -14 1015 -14 1042 0 51
28 49 -37 49 1435 l0 1365 454 0 455 0 28 24 28 24 3 508 c2 371 -1 516 -9
537 -25 60 68 57 -1535 57 l-1466 0 -34 -34z"/>
<path d="M20350 8247 c-14 -7 -33 -28 -42 -47 -17 -33 -18 -145 -18 -1918 0
-2031 -3 -1928 51 -1966 21 -15 140 -16 1347 -16 888 0 1330 3 1343 10 48 26
49 38 49 525 0 487 -1 499 -49 525 -13 7 -286 10 -805 10 l-786 0 0 255 0 255
709 0 708 0 26 24 c14 13 29 35 32 48 3 12 4 211 3 441 l-3 419 -33 29 -32 29
-705 0 -705 0 0 180 0 180 755 0 c667 0 760 2 786 16 58 29 59 42 59 501 0
378 -2 421 -18 453 -9 19 -28 40 -42 47 -37 18 -2593 18 -2630 0z"/>
</g>
</svg>
